HIERARCHY
ROOT Hips
{
	OFFSET 0.000000 71.427986 0.000000
	CHANNELS 6 Xposition Yposition Zposition Xrotation Yrotation Zrotation
	JOINT Pelvis
	{
		OFFSET 0.000000 0.000000 0.000000
		CHANNELS 3 Xrotation Yrotation Zrotation
		JOINT LeftUpLeg
		{
			OFFSET 6.797100 -2.508499 -1.318700
			CHANNELS 3 Xrotation Yrotation Zrotation
			JOINT LeftLeg
			{
				OFFSET 0.069008 -29.241863 0.690200
				CHANNELS 3 Xrotation Yrotation Zrotation
				JOINT LeftFoot
				{
					OFFSET -0.069008 -29.568123 -0.266800
					CHANNELS 3 Xrotation Yrotation Zrotation
					JOINT LeftToeBase
					{
						OFFSET 3.145500 -8.631000 16.059900
						CHANNELS 3 Xrotation Yrotation Zrotation
						End Site
						{
							OFFSET 0.000000 18.501587 0.000000
						}
					}
				}
			}
			JOINT Left_ShortSleeve
			{
				OFFSET 0.265923 -10.480953 1.153800
				CHANNELS 3 Xrotation Yrotation Zrotation
				End Site
				{
					OFFSET 1.725763 19.823879 0.000000
				}
			}
		}
		JOINT RightUpLeg
		{
			OFFSET -6.797100 -2.508499 -1.318700
			CHANNELS 3 Xrotation Yrotation Zrotation
			JOINT RightLeg
			{
				OFFSET -0.082453 -29.241932 0.688000
				CHANNELS 3 Xrotation Yrotation Zrotation
				JOINT RightFoot
				{
					OFFSET 0.082453 -29.568058 -0.264600
					CHANNELS 3 Xrotation Yrotation Zrotation
					JOINT RightToeBase
					{
						OFFSET -3.115300 -8.682800 16.113400
						CHANNELS 3 Xrotation Yrotation Zrotation
						End Site
						{
							OFFSET 0.000000 18.567114 0.000000
						}
					}
				}
			}
			JOINT Right_ShortSleeve
			{
				OFFSET -0.265923 -10.480953 1.153800
				CHANNELS 3 Xrotation Yrotation Zrotation
				End Site
				{
					OFFSET -1.725766 19.823910 0.000000
				}
			}
		}
	}
	JOINT Spine
	{
		OFFSET 0.000000 13.368103 0.470500
		CHANNELS 3 Xrotation Yrotation Zrotation
		JOINT Spine1
		{
			OFFSET 0.147000 13.837402 0.538800
			CHANNELS 3 Xrotation Yrotation Zrotation
			JOINT Spine2
			{
				OFFSET 0.168000 16.242897 -1.435500
				CHANNELS 3 Xrotation Yrotation Zrotation
				JOINT Neck
				{
					OFFSET 0.217200 18.631500 -1.679100
					CHANNELS 3 Xrotation Yrotation Zrotation
					JOINT Head
					{
						OFFSET 0.000000 6.599396 1.385900
						CHANNELS 3 Xrotation Yrotation Zrotation
						JOINT Hat
						{
							OFFSET -0.532200 27.220596 -10.096100
							CHANNELS 3 Xrotation Yrotation Zrotation
							End Site
							{
								OFFSET 0.000000 22.029861 0.000000
							}
						}
						JOINT HairD
						{
							OFFSET -10.777400 17.437393 -1.325900
							CHANNELS 3 Xrotation Yrotation Zrotation
							JOINT HairD1
							{
								OFFSET -3.290299 -11.051193 1.062200
								CHANNELS 3 Xrotation Yrotation Zrotation
								End Site
								{
									OFFSET 0.000000 11.579437 0.000000
								}
							}
						}
						JOINT HairB
						{
							OFFSET -10.777400 17.437393 1.467900
							CHANNELS 3 Xrotation Yrotation Zrotation
							JOINT HairB1
							{
								OFFSET -1.561200 -12.956299 3.590200
								CHANNELS 3 Xrotation Yrotation Zrotation
								End Site
								{
									OFFSET 0.000000 13.534866 0.000000
								}
							}
						}
						JOINT HairA
						{
							OFFSET 9.713100 17.437393 1.467900
							CHANNELS 3 Xrotation Yrotation Zrotation
							JOINT HairA1
							{
								OFFSET 1.561200 -12.956299 3.590200
								CHANNELS 3 Xrotation Yrotation Zrotation
								End Site
								{
									OFFSET 0.000000 13.534866 0.000000
								}
							}
						}
						JOINT HairC
						{
							OFFSET 9.713100 17.437393 -1.325900
							CHANNELS 3 Xrotation Yrotation Zrotation
							JOINT HairC1
							{
								OFFSET 3.290300 -11.051193 1.062200
								CHANNELS 3 Xrotation Yrotation Zrotation
								End Site
								{
									OFFSET 0.000000 11.579437 0.000000
								}
							}
						}
					}
				}
				JOINT LeftShoulder
				{
					OFFSET 5.101800 15.108002 -2.763700
					CHANNELS 3 Xrotation Yrotation Zrotation
					JOINT LeftArm
					{
						OFFSET 9.825497 2.506317 -1.597400
						CHANNELS 3 Xrotation Yrotation Zrotation
						JOINT LeftForeArm
						{
							OFFSET 21.966244 0.000000 0.000000
							CHANNELS 3 Xrotation Yrotation Zrotation
							JOINT LeftHand
							{
								OFFSET 33.879036 0.000000 0.000000
								CHANNELS 3 Xrotation Yrotation Zrotation
								JOINT LeftHandThumb1
								{
									OFFSET 6.715286 -2.359680 3.363841
									CHANNELS 3 Xrotation Yrotation Zrotation
									JOINT LeftHandThumb2
									{
										OFFSET 2.507072 -1.447464 1.447461
										CHANNELS 3 Xrotation Yrotation Zrotation
										JOINT LeftHandThumb3
										{
											OFFSET 2.898338 -1.673355 1.673357
											CHANNELS 3 Xrotation Yrotation Zrotation
											End Site
											{
												OFFSET -0.295959 3.727692 -0.131651
											}
										}
									}
								}
								JOINT LeftHandIndex1
								{
									OFFSET 14.190811 -0.254547 3.840278
									CHANNELS 3 Xrotation Yrotation Zrotation
									JOINT LeftHandIndex2
									{
										OFFSET 3.551727 0.000000 -0.000000
										CHANNELS 3 Xrotation Yrotation Zrotation
										JOINT LeftHandIndex3
										{
											OFFSET 2.894196 0.000000 0.000000
											CHANNELS 3 Xrotation Yrotation Zrotation
											End Site
											{
												OFFSET -1.000603 2.690872 0.366626
											}
										}
									}
								}
								JOINT LeftHandMiddle1
								{
									OFFSET 13.776489 0.000000 0.000000
									CHANNELS 3 Xrotation Yrotation Zrotation
									JOINT LeftHandMiddle2
									{
										OFFSET 3.438232 0.000000 0.000000
										CHANNELS 3 Xrotation Yrotation Zrotation
										JOINT LeftHandMiddle3
										{
											OFFSET 3.691551 0.000000 0.000000
											CHANNELS 3 Xrotation Yrotation Zrotation
											End Site
											{
												OFFSET -1.082298 3.499527 0.457670
											}
										}
									}
								}
								JOINT LeftHandRing1
								{
									OFFSET 13.966164 -0.268127 -3.067488
									CHANNELS 3 Xrotation Yrotation Zrotation
									JOINT LeftHandRing2
									{
										OFFSET 3.162567 0.000000 0.000000
										CHANNELS 3 Xrotation Yrotation Zrotation
										JOINT LeftHandRing3
										{
											OFFSET 3.324348 0.000000 0.000000
											CHANNELS 3 Xrotation Yrotation Zrotation
											End Site
											{
												OFFSET -0.861900 3.184998 0.405154
											}
										}
									}
								}
								JOINT LeftHandPinky1
								{
									OFFSET 13.131393 -0.168503 -5.746925
									CHANNELS 3 Xrotation Yrotation Zrotation
									JOINT LeftHandPinky2
									{
										OFFSET 2.849182 0.000000 0.000000
										CHANNELS 3 Xrotation Yrotation Zrotation
										JOINT LeftHandPinky3
										{
											OFFSET 2.805038 0.000000 0.000000
											CHANNELS 3 Xrotation Yrotation Zrotation
											End Site
											{
												OFFSET -0.882500 2.642609 0.325652
											}
										}
									}
								}
							}
							JOINT Left_Sleeve
							{
								OFFSET 6.592125 -0.646545 0.805568
								CHANNELS 3 Xrotation Yrotation Zrotation
								End Site
								{
									OFFSET -0.000179 20.275787 -0.000000
								}
							}
						}
					}
				}
				JOINT RightShoulder
				{
					OFFSET -5.731700 15.108002 -2.763700
					CHANNELS 3 Xrotation Yrotation Zrotation
					JOINT RightArm
					{
						OFFSET -9.825497 2.506317 -1.597400
						CHANNELS 3 Xrotation Yrotation Zrotation
						JOINT RightForeArm
						{
							OFFSET -21.966242 0.000000 0.000000
							CHANNELS 3 Xrotation Yrotation Zrotation
							JOINT RightHand
							{
								OFFSET -33.879032 0.000000 0.000000
								CHANNELS 3 Xrotation Yrotation Zrotation
								JOINT RightHandThumb1
								{
									OFFSET -6.715286 -2.359680 3.363841
									CHANNELS 3 Xrotation Yrotation Zrotation
									JOINT RightHandThumb2
									{
										OFFSET -2.507072 -1.447464 1.447461
										CHANNELS 3 Xrotation Yrotation Zrotation
										JOINT RightHandThumb3
										{
											OFFSET -2.898338 -1.673355 1.673357
											CHANNELS 3 Xrotation Yrotation Zrotation
											End Site
											{
												OFFSET 0.295959 3.727692 -0.131651
											}
										}
									}
								}
								JOINT RightHandIndex1
								{
									OFFSET -14.190811 -0.254547 3.840278
									CHANNELS 3 Xrotation Yrotation Zrotation
									JOINT RightHandIndex2
									{
										OFFSET -3.551727 0.000000 -0.000000
										CHANNELS 3 Xrotation Yrotation Zrotation
										JOINT RightHandIndex3
										{
											OFFSET -2.894196 0.000000 0.000000
											CHANNELS 3 Xrotation Yrotation Zrotation
											End Site
											{
												OFFSET 1.000603 2.690872 0.366626
											}
										}
									}
								}
								JOINT RightHandMiddle1
								{
									OFFSET -13.776489 0.000000 0.000000
									CHANNELS 3 Xrotation Yrotation Zrotation
									JOINT RightHandMiddle2
									{
										OFFSET -3.438232 0.000000 0.000000
										CHANNELS 3 Xrotation Yrotation Zrotation
										JOINT RightHandMiddle3
										{
											OFFSET -3.691551 0.000000 0.000000
											CHANNELS 3 Xrotation Yrotation Zrotation
											End Site
											{
												OFFSET 1.082298 3.499527 0.457670
											}
										}
									}
								}
								JOINT RightHandRing1
								{
									OFFSET -13.966164 -0.268127 -3.067488
									CHANNELS 3 Xrotation Yrotation Zrotation
									JOINT RightHandRing2
									{
										OFFSET -3.162567 0.000000 0.000000
										CHANNELS 3 Xrotation Yrotation Zrotation
										JOINT RightHandRing3
										{
											OFFSET -3.324348 0.000000 0.000000
											CHANNELS 3 Xrotation Yrotation Zrotation
											End Site
											{
												OFFSET 0.861900 3.184998 0.405154
											}
										}
									}
								}
								JOINT RightHandPinky1
								{
									OFFSET -13.131393 -0.168503 -5.746925
									CHANNELS 3 Xrotation Yrotation Zrotation
									JOINT RightHandPinky2
									{
										OFFSET -2.849182 0.000000 0.000000
										CHANNELS 3 Xrotation Yrotation Zrotation
										JOINT RightHandPinky3
										{
											OFFSET -2.805038 0.000000 0.000000
											CHANNELS 3 Xrotation Yrotation Zrotation
											End Site
											{
												OFFSET 0.882500 2.642609 0.325652
											}
										}
									}
								}
							}
							JOINT Right_Sleeve
							{
								OFFSET -6.592125 -0.646545 0.805568
								CHANNELS 3 Xrotation Yrotation Zrotation
								End Site
								{
									OFFSET 0.000179 20.275787 -0.000000
								}
							}
						}
					}
				}
				JOINT Bind_Right_JacketString
				{
					OFFSET -3.534800 11.969597 7.200700
					CHANNELS 3 Xrotation Yrotation Zrotation
					JOINT Bind_Right_JacketString1
					{
						OFFSET -0.319900 -6.102600 2.794100
						CHANNELS 3 Xrotation Yrotation Zrotation
						End Site
						{
							OFFSET 0.000000 6.719452 0.000000
						}
					}
				}
				JOINT Bind_Left_JacketString
				{
					OFFSET 2.904800 11.969597 7.200700
					CHANNELS 3 Xrotation Yrotation Zrotation
					JOINT Bind_Left_JacketString1
					{
						OFFSET 0.364800 -5.904503 3.186800
						CHANNELS 3 Xrotation Yrotation Zrotation
						End Site
						{
							OFFSET 0.000000 6.719513 0.000000
						}
					}
				}
				JOINT HairE
				{
					OFFSET 5.915200 17.612701 -11.592200
					CHANNELS 3 Xrotation Yrotation Zrotation
					JOINT HairE1
					{
						OFFSET 0.289200 -7.171898 -1.284500
						CHANNELS 3 Xrotation Yrotation Zrotation
						End Site
						{
							OFFSET 0.000000 7.291756 0.000000
						}
					}
				}
				JOINT HairF
				{
					OFFSET -0.864800 17.612701 -11.592200
					CHANNELS 3 Xrotation Yrotation Zrotation
					JOINT HairF1
					{
						OFFSET 0.000000 -14.087097 -2.127501
						CHANNELS 3 Xrotation Yrotation Zrotation
						End Site
						{
							OFFSET 0.000000 14.246841 0.000000
						}
					}
				}
				JOINT HairG
				{
					OFFSET -8.087700 17.612701 -11.592200
					CHANNELS 3 Xrotation Yrotation Zrotation
					JOINT HairG1
					{
						OFFSET -0.293600 -6.081398 -0.910100
						CHANNELS 3 Xrotation Yrotation Zrotation
						End Site
						{
							OFFSET 0.000000 6.156120 0.000000
						}
					}
				}
			}
		}
	}
	JOINT Pouch
	{
		OFFSET 0.000000 4.394501 10.847300
		CHANNELS 3 Xrotation Yrotation Zrotation
		End Site
		{
			OFFSET 0.000000 21.880577 0.000000
		}
	}
	JOINT Bag
	{
		OFFSET -13.229000 4.813004 -0.593300
		CHANNELS 3 Xrotation Yrotation Zrotation
		End Site
		{
			OFFSET 0.000000 21.880577 0.000000
		}
	}
	JOINT OccupyGuyFacialAnim_Joint
	{
		OFFSET 1.000000 -70.206398 -1.655000
		CHANNELS 3 Xrotation Yrotation Zrotation
		End Site
		{
			OFFSET 0.000000 21.880577 0.000000
		}
	}
}
MOTION
Frames: 4
Frame Time: 0.016667
0.145340 69.897652 1.251326 -9.027268 -5.357331 8.303309 0.000000 0.000000 0.000001 10.539835 14.863844 -13.642162 10.985187 0.116563 -0.091100 -10.694608 -0.626443 4.599007 -0.000000 0.000000 0.000000 0.000000 -0.000002 0.000000 -7.936125 -13.697547 -24.442897 28.051826 0.702618 0.318711 -11.931564 -9.949999 8.821567 0.000000 0.000001 -0.000000 -0.000000 -0.000001 -0.000001 2.405384 1.298461 -5.000378 4.666352 1.729998 -2.802044 4.685184 1.690013 -2.793392 -2.808737 -0.350888 -5.041334 -1.723852 -2.292228 2.025737 0.000000 -0.000000 -0.000000 0.000000 -0.000000 -0.000000 0.000000 -0.000000 -0.000000 0.000000 -0.000000 0.000000 0.000000 0.000000 0.000000 0.000000 -0.000000 0.000000 0.000000 0.000000 0.000000 0.000000 -0.000000 -0.000000 0.000000 -0.000000 -0.000000 4.034696 -13.464700 -7.420041 5.772112 3.721066 -60.112939 11.491845 -25.077070 -5.820588 -8.196590 -3.557923 7.163544 -21.992164 17.035858 -2.008545 5.703914 22.366211 5.520018 0.000000 -0.000001 0.000001 -2.899134 12.800592 -7.221973 2.739051 6.814366 -29.837651 0.000002 0.000001 0.000000 -8.983037 7.076828 -9.539567 4.275438 7.169707 -39.702367 -0.000000 0.000001 -0.000001 -16.256863 8.648358 -21.626599 4.109022 6.928493 -36.756960 -0.000000 -0.000001 -0.000004 -21.808792 10.570009 -31.866924 1.910796 2.504679 -24.353791 -0.000000 -0.000000 0.000001 0.000001 0.000000 -0.000000 3.919268 12.466709 7.900377 -3.939678 -11.622638 68.565066 15.857367 12.603584 4.140681 -8.305450 0.914265 -6.259056 -21.991993 -17.035457 2.009242 5.703634 -22.367058 -5.520859 -0.000002 -0.000001 0.000001 -2.899142 -12.801059 7.221822 2.738669 -6.813210 29.837828 0.000000 0.000002 -0.000001 -8.983057 -7.076437 9.538899 4.275417 -7.169930 39.704071 0.000001 0.000000 -0.000001 -16.256636 -8.649603 21.626356 4.109536 -6.928336 36.756304 0.000001 0.000001 -0.000003 -21.809400 -10.568781 31.865954 1.910741 -2.505956 24.353724 -0.000001 0.000000 0.000000 0.000003 -0.000000 0.000001 -0.000000 0.000000 0.000000 0.000000 0.000000 0.000000 -0.000000 0.000000 0.000000 -0.000000 0.000000 0.000000 -0.000000 0.000000 0.000000 0.000000 0.000000 0.000000 -0.000000 0.000000 0.000000 -0.000000 0.000000 0.000000 -0.000000 0.000000 0.000000 0.000000 0.000000 0.000000 0.000000 0.000000 0.000001 0.000000 0.000000 0.000001 0.000000 0.000000 0.000001 
0.105451 69.955620 1.259643 -9.114376 -5.302218 8.252425 0.000000 0.000000 -0.000001 10.560329 14.819110 -13.547118 10.910601 0.024577 -0.117967 -10.119474 -0.518641 4.785366 0.000000 0.000001 -0.000000 -0.000000 0.000001 -0.000000 -7.809356 -13.672198 -24.268202 28.036521 0.602154 0.317525 -11.920714 -10.011081 8.436259 -0.000000 -0.000001 -0.000000 -0.000002 -0.000001 -0.000000 2.527973 1.273712 -5.016845 4.913430 1.686253 -2.761732 4.931895 1.643645 -2.752655 -3.587674 -0.245977 -5.289812 -1.743662 -2.215875 1.752008 -0.000000 0.000000 0.000000 -0.000000 0.000000 0.000000 -0.000000 0.000000 0.000000 -0.000000 0.000000 0.000000 0.000000 0.000000 0.000000 -0.000000 0.000000 0.000000 0.000000 0.000000 0.000000 -0.000000 0.000000 0.000000 -0.000000 0.000000 0.000000 3.979138 -13.925286 -7.123390 8.808448 0.870774 -59.276172 9.104180 -28.163807 -6.388883 -8.185921 -3.893770 7.156320 -21.796585 17.067003 -2.254248 5.203268 22.372771 5.475975 -0.000000 0.000001 -0.000002 -2.942358 12.989527 -7.794519 2.737322 6.823862 -30.157495 0.000001 0.000000 -0.000000 -8.964740 7.351982 -10.247557 4.392797 7.266432 -40.753915 0.000000 0.000001 0.000001 -16.096189 8.801833 -21.946448 4.244151 7.047128 -37.953814 -0.000000 -0.000000 -0.000003 -21.489845 10.821482 -32.647246 2.037495 2.734376 -25.918486 -0.000003 0.000001 -0.000002 -0.000001 0.000001 0.000000 3.867134 12.882175 7.705446 -3.144261 -10.625762 68.163116 17.220652 14.146983 3.950135 -8.237063 -0.271342 -5.322022 -21.973241 -16.867403 2.049166 5.973379 -23.678900 -5.152969 -0.000000 -0.000001 0.000001 -2.802280 -12.889481 8.069483 2.700029 -6.811020 29.794665 0.000001 -0.000001 0.000000 -9.075012 -7.233167 10.442668 4.430275 -7.269916 40.816818 0.000001 -0.000001 0.000003 -16.277751 -8.826603 22.153664 4.270809 -7.005742 38.208027 0.000001 -0.000000 0.000002 -21.881015 -10.795310 31.748420 2.048324 -2.646573 25.644164 -0.000000 0.000001 -0.000001 0.000002 0.000001 -0.000001 -0.000000 -0.000000 -0.000000 -0.000000 -0.000000 -0.000000 -0.000000 -0.000000 -0.000000 -0.000000 -0.000000 -0.000000 -0.000000 -0.000000 -0.000000 -0.000000 -0.000000 -0.000000 -0.000000 -0.000000 -0.000000 -0.000000 -0.000000 -0.000000 -0.000000 -0.000000 -0.000000 -0.000000 -0.000000 -0.000000 0.000000 0.000000 -0.000001 0.000000 0.000000 -0.000001 0.000000 0.000000 -0.000001 
0.041341 70.087402 1.304435 -9.296167 -5.171258 8.097389 0.000001 -0.000000 -0.000000 9.161264 15.044953 -12.956802 13.486214 -0.001790 -0.150719 -9.792411 -0.378447 5.057313 0.000000 0.000001 -0.000000 -0.000000 0.000000 -0.000000 -7.591713 -13.684981 -24.030004 28.171472 0.515580 0.318998 -11.546212 -10.119193 8.307824 -0.000000 -0.000001 -0.000000 -0.000001 -0.000001 0.000000 2.766569 1.226476 -5.033634 5.395336 1.608661 -2.665655 5.413140 1.560643 -2.655692 -4.963399 -0.057444 -5.756623 -1.813866 -2.079885 1.239585 -0.000000 0.000000 -0.000000 -0.000000 0.000000 -0.000000 -0.000000 0.000000 -0.000000 -0.000000 0.000000 -0.000000 -0.000000 0.000000 -0.000000 -0.000000 0.000000 -0.000000 -0.000000 0.000000 -0.000000 -0.000000 0.000000 -0.000000 -0.000000 0.000000 -0.000000 3.884196 -14.711362 -6.633769 14.149920 -3.920246 -57.208121 5.105491 -33.594972 -7.629403 -8.168609 -4.251241 7.302859 -21.332279 17.091698 -2.837961 3.958072 22.289146 5.402737 -0.000000 0.000001 -0.000002 -3.076579 13.365442 -9.160868 2.825257 6.942456 -31.688823 0.000001 0.000000 -0.000002 -8.994089 7.873351 -11.761438 4.679769 7.511357 -43.257463 -0.000001 0.000002 -0.000001 -15.795526 9.131206 -22.750954 4.548041 7.323673 -40.771499 -0.000001 0.000001 0.000000 -20.863673 11.238483 -34.243638 2.364629 3.249450 -29.568288 -0.000000 0.000001 0.000005 0.000001 0.000000 0.000001 3.778977 13.585869 7.369178 -1.561296 -8.690970 67.291147 19.661254 17.108688 3.253696 -8.102051 -2.099967 -3.619108 -21.920092 -16.431905 2.146744 5.822836 -25.325643 -4.915321 -0.000001 -0.000001 0.000001 -2.709177 -13.063774 9.415210 2.637314 -6.812446 29.750788 0.000000 0.000002 -0.000001 -9.249257 -7.574071 11.793332 4.704356 -7.483149 42.958728 0.000002 -0.000000 -0.000001 -16.291700 -9.133650 22.933033 4.484994 -7.133888 40.801706 -0.000000 -0.000002 0.000001 -22.155945 -11.243197 31.536705 2.308640 -2.917796 28.251703 -0.000001 0.000001 -0.000003 0.000001 -0.000000 -0.000000 -0.000001 0.000000 0.000000 -0.000001 0.000000 -0.000000 -0.000001 0.000000 0.000000 -0.000001 0.000000 0.000000 -0.000001 0.000000 0.000000 -0.000001 0.000000 0.000000 -0.000001 0.000000 0.000000 -0.000001 0.000000 0.000000 -0.000001 0.000000 0.000000 -0.000001 0.000000 0.000000 0.000001 -0.000000 -0.000000 0.000001 -0.000000 -0.000000 0.000001 -0.000000 -0.000000 
-0.001176 70.273041 1.444400 -9.516995 -4.988303 7.839047 0.000001 0.000000 -0.000000 8.437661 15.101441 -12.437625 15.111039 -0.004549 -0.162382 -9.749197 -0.314240 5.323025 0.000000 -0.000000 0.000000 -0.000001 -0.000001 -0.000000 -7.269396 -13.921220 -23.836187 28.135260 0.508847 0.321215 -10.675209 -10.113169 8.709097 -0.000000 -0.000003 -0.000000 -0.000000 -0.000001 -0.000000 3.025459 1.180565 -5.048656 5.918542 1.537690 -2.526865 5.935775 1.483429 -2.515835 -6.201183 0.091968 -6.231188 -2.418391 -1.955305 0.684862 -0.000001 -0.000000 0.000000 -0.000001 -0.000000 0.000000 -0.000001 -0.000000 0.000000 -0.000001 -0.000000 0.000000 -0.000000 0.000000 0.000000 -0.000001 -0.000000 0.000000 -0.000000 0.000000 0.000000 -0.000001 -0.000000 0.000000 -0.000001 -0.000000 0.000000 3.794423 -15.397644 -6.279940 19.088019 -7.935483 -54.787936 2.088975 -38.551083 -8.015112 -8.160012 -4.316242 7.783464 -20.667466 17.055879 -3.671360 2.093578 21.990042 5.341708 0.000001 -0.000001 -0.000001 -3.328987 13.761969 -11.122450 3.108025 7.224223 -34.978300 -0.000001 -0.000001 -0.000002 -9.153364 8.386895 -13.672304 5.098736 7.862107 -46.821647 0.000002 0.000004 -0.000001 -15.503454 9.530018 -23.916864 4.949141 7.703903 -44.692335 -0.000002 0.000003 0.000001 -20.170250 11.554920 -36.157321 2.865201 3.935183 -34.609043 -0.000002 -0.000001 0.000001 0.000003 -0.000001 -0.000000 3.699330 14.186510 7.099044 0.249532 -6.540140 66.152083 22.073783 20.344048 2.093860 -7.944376 -3.252923 -1.946561 -21.837810 -15.758110 2.290930 4.826216 -25.921261 -5.103665 -0.000000 -0.000002 0.000003 -2.750382 -13.242987 10.381475 2.660928 -6.889618 30.409583 0.000002 -0.000000 -0.000005 -9.463693 -7.971136 12.505455 4.962001 -7.753084 45.326331 0.000001 -0.000000 0.000004 -16.257542 -9.400678 23.322038 4.532899 -7.232901 43.244171 0.000000 -0.000002 -0.000000 -22.702108 -11.736738 31.293830 2.545873 -3.202604 31.286088 -0.000000 0.000000 -0.000001 0.000005 0.000000 0.000001 0.000000 -0.000000 0.000000 0.000001 -0.000000 -0.000000 0.000000 -0.000000 0.000000 0.000000 -0.000000 0.000000 0.000000 -0.000000 0.000000 0.000001 -0.000000 0.000000 0.000000 -0.000000 0.000000 0.000000 -0.000000 0.000000 0.000000 -0.000000 0.000000 0.000001 -0.000000 0.000000 0.000001 0.000000 -0.000000 0.000001 0.000000 -0.000000 0.000001 0.000000 -0.000000 
